<svg xmlns="http://www.w3.org/2000/svg" viewBox="0 0 193 193"><defs><style>.cls-1{fill:#42f704;}.cls-2{fill:none;stroke:#42f704;stroke-miterlimit:10;stroke-width:15px;}</style></defs><g id="Calque_2" data-name="Calque 2"><g id="Calque_1-2" data-name="Calque 1"><path class="cls-1" d="M148.17,15A29.86,29.86,0,0,1,178,44.83V148.17A29.86,29.86,0,0,1,148.17,178H44.83A29.86,29.86,0,0,1,15,148.17V44.83A29.86,29.86,0,0,1,44.83,15H148.17m0-15H44.83A45,45,0,0,0,0,44.83V148.17A45,45,0,0,0,44.83,193H148.17A45,45,0,0,0,193,148.17V44.83A45,45,0,0,0,148.17,0Z"/><line class="cls-2" x1="39.75" y1="156.75" x2="153.25" y2="43.25"/><line class="cls-2" x1="39.78" y1="43.13" x2="153.28" y2="156.63"/></g></g></svg>